<svg width="23" height="24" viewBox="0 0 23 24" fill="none" xmlns="http://www.w3.org/2000/svg">
<path id="Vector" d="M22.7889 9.81577H11.7341V14.4594H18.0494C17.777 15.9604 16.9509 17.23 15.7056 18.0805C14.6531 18.7997 13.3098 19.225 11.731 19.225C8.67434 19.225 6.08887 17.1143 5.16483 14.278C4.93229 13.5588 4.79766 12.7896 4.79766 11.9984C4.79766 11.2073 4.93229 10.438 5.16483 9.71883C6.09193 6.88573 8.6774 4.77498 11.7341 4.77498C13.4567 4.77498 15.0019 5.38163 16.2196 6.5699L19.5853 3.12704C17.5506 1.18827 14.8978 0 11.7341 0C7.14753 0 3.17906 2.68925 1.24837 6.61055C0.45284 8.23036 0 10.0628 0 12.0016C0 13.9403 0.45284 15.7696 1.24837 17.3894C3.17906 21.3107 7.14753 24 11.7341 24C14.904 24 17.5598 22.9243 19.4997 21.0919C21.718 19.003 23 15.926 23 12.2705C23 11.4199 22.9266 10.6038 22.7889 9.81577Z" fill="#300759"/>
</svg>
