<svg width="48" height="48" viewBox="0 0 48 48" fill="none" xmlns="http://www.w3.org/2000/svg">
<g id="mosque button">
<circle id="Ellipse 8" cx="24" cy="24" r="24" fill="#E5B6F2"/>
<g id="Group">
<path id="Vector" fill-rule="evenodd" clip-rule="evenodd" d="M11.1408 18.4162C12.0552 18.1259 12.7796 17.9583 13.5278 17.9583C14.2738 17.9583 14.9961 18.1244 15.9053 18.4133C15.2626 15.4768 13.5278 12 13.5278 12C13.5278 12 11.7417 15.6082 11.1408 18.4162ZM16.0556 19.9834L15.8273 19.9076C14.7541 19.5494 14.1258 19.4021 13.5278 19.4021C12.9298 19.4021 12.3007 19.5494 11.2282 19.9076L11 19.9834V38H16.0556V19.9834ZM18.9444 27.8889V30.7778H17.5H20.3889V30.0556C20.3889 29.864 20.465 29.6803 20.6004 29.5449C20.7359 29.4094 20.9196 29.3333 21.1111 29.3333C21.3027 29.3333 21.4864 29.4094 21.6218 29.5449C21.7572 29.6803 21.8333 29.864 21.8333 30.0556V30.7778H23.2778V30.0556C23.2778 29.864 23.3539 29.6803 23.4893 29.5449C23.6248 29.4094 23.8085 29.3333 24 29.3333C24.1915 29.3333 24.3752 29.4094 24.5107 29.5449C24.6461 29.6803 24.7222 29.864 24.7222 30.0556V30.7778H26.1667V30.0556C26.1667 29.864 26.2428 29.6803 26.3782 29.5449C26.5136 29.4094 26.6973 29.3333 26.8889 29.3333C27.0804 29.3333 27.2641 29.4094 27.3996 29.5449C27.535 29.6803 27.6111 29.864 27.6111 30.0556V30.7778H30.5H29.0556V27.8889H18.9444ZM29.9273 26.4444H18.0727C17.7044 25.6096 17.5 24.6418 17.5 23.5556C17.5 20.8364 19.7931 18.8618 21.7149 17.2079C22.2941 16.7096 22.8394 16.2402 23.2778 15.7881V13.4444H24.7222V15.7881C25.1606 16.2402 25.7059 16.7096 26.2851 17.2079C28.2062 18.8618 30.5 20.8364 30.5 23.5556C30.5 24.6418 30.2949 25.6096 29.9273 26.4444ZM31.9444 38H37V19.9444C36.9224 19.9445 36.8454 19.9321 36.7718 19.9076C35.6993 19.5494 35.0702 19.4021 34.4722 19.4021C33.8742 19.4021 33.2452 19.5494 32.1727 19.9076L31.9444 19.9834V38ZM32.0853 18.4162C32.9996 18.1259 33.724 17.9583 34.4722 17.9583C35.2176 17.9583 35.9405 18.1244 36.8498 18.4133C36.207 15.4768 34.4722 12 34.4722 12C34.4722 12 32.6862 15.6082 32.0853 18.4162ZM30.5 38V32.2222H17.5V38H20.3889V37.1911C20.389 36.6415 20.5458 36.1032 20.8411 35.6396C21.1363 35.176 21.5577 34.8063 22.0558 34.5738L24 33.6667L25.9442 34.5738C26.4424 34.8063 26.8638 35.1762 27.1591 35.6399C27.4544 36.1037 27.6112 36.6421 27.6111 37.1918V38H30.5Z" fill="#300759"/>
</g>
</g>
</svg>
