<svg width="24" height="29" viewBox="0 0 24 29" fill="none" xmlns="http://www.w3.org/2000/svg">
<g id="Group">
<path id="Vector" d="M7.64741 28.4941C6.70474 28.443 5.81768 28.032 5.16933 27.3458C4.39367 26.5995 3.70149 25.7711 3.10502 24.8752C2.17327 23.541 1.43676 22.0806 0.917778 20.5382C0.330422 18.8788 0.0214308 17.1338 0.00330434 15.3737C-0.0423258 13.6466 0.385374 11.9399 1.24009 10.4385C1.86609 9.35626 2.759 8.45252 3.8336 7.8135C4.89632 7.17722 6.10901 6.83472 7.34758 6.82107C8.28127 6.87631 9.19879 7.08973 10.061 7.45221C10.7491 7.75504 11.4717 7.96792 12.2138 8.08485C13.0323 7.91337 13.8322 7.66232 14.6019 7.33528C15.5129 6.97958 16.4774 6.78039 17.4548 6.74612C17.5852 6.74612 17.7141 6.74612 17.8385 6.76111C19.9823 6.82257 21.9762 7.87497 23.2354 9.60947C22.2526 10.1351 21.4349 10.923 20.873 11.8855C20.3111 12.8481 20.0272 13.9476 20.0528 15.0618C20.043 15.9138 20.2139 16.7583 20.5542 17.5394C20.8945 18.3206 21.3965 19.0207 22.0271 19.5937C22.6013 20.1409 23.2699 20.5787 24 20.8875C23.8501 21.3372 23.6777 21.772 23.4948 22.2097C23.0795 23.177 22.5672 24.0997 21.9657 24.9636C21.3969 25.829 20.7348 26.6294 19.9913 27.3503C19.3131 28.0232 18.4091 28.4202 17.4548 28.4641C16.6458 28.4283 15.851 28.2385 15.1131 27.9049C14.3174 27.5583 13.4622 27.3684 12.5946 27.3458C11.7024 27.3633 10.822 27.5522 10.0011 27.9019C9.29203 28.2218 8.53452 28.421 7.75984 28.4911L7.64741 28.4941ZM12.3697 6.74612C12.2573 6.74612 12.1448 6.74612 12.0324 6.73263C12.0087 6.55418 11.9962 6.37444 11.9949 6.19444C12.0439 4.697 12.6291 3.26697 13.644 2.16475C14.2116 1.5313 14.8995 1.01711 15.6678 0.652125C16.3837 0.283568 17.1661 0.0618492 17.969 0C17.9915 0.196387 17.9915 0.388277 17.9915 0.571172C17.9704 2.04507 17.4166 3.46154 16.4324 4.55888C15.9558 5.19784 15.3452 5.72475 14.6433 6.10261C13.9415 6.48046 13.1655 6.70011 12.3697 6.74612Z" fill="#300759"/>
</g>
</svg>
