<svg width="66" height="66" viewBox="0 0 66 66" fill="none" xmlns="http://www.w3.org/2000/svg">
<g id="mosque button">
<circle id="Ellipse 8" cx="33" cy="33" r="33" fill="#300759"/>
<g id="Group">
<path id="Vector" fill-rule="evenodd" clip-rule="evenodd" d="M20.1408 27.4162C21.0552 27.1259 21.7796 26.9583 22.5278 26.9583C23.2738 26.9583 23.9961 27.1244 24.9053 27.4133C24.2626 24.4768 22.5278 21 22.5278 21C22.5278 21 20.7417 24.6082 20.1408 27.4162ZM25.0556 28.9834L24.8273 28.9076C23.7541 28.5494 23.1258 28.4021 22.5278 28.4021C21.9298 28.4021 21.3007 28.5494 20.2282 28.9076L20 28.9834V47H25.0556V28.9834ZM27.9444 36.8889V39.7778H26.5H29.3889V39.0556C29.3889 38.864 29.465 38.6803 29.6004 38.5449C29.7359 38.4094 29.9196 38.3333 30.1111 38.3333C30.3027 38.3333 30.4864 38.4094 30.6218 38.5449C30.7572 38.6803 30.8333 38.864 30.8333 39.0556V39.7778H32.2778V39.0556C32.2778 38.864 32.3539 38.6803 32.4893 38.5449C32.6248 38.4094 32.8085 38.3333 33 38.3333C33.1915 38.3333 33.3752 38.4094 33.5107 38.5449C33.6461 38.6803 33.7222 38.864 33.7222 39.0556V39.7778H35.1667V39.0556C35.1667 38.864 35.2428 38.6803 35.3782 38.5449C35.5136 38.4094 35.6973 38.3333 35.8889 38.3333C36.0804 38.3333 36.2641 38.4094 36.3996 38.5449C36.535 38.6803 36.6111 38.864 36.6111 39.0556V39.7778H39.5H38.0556V36.8889H27.9444ZM38.9273 35.4444H27.0727C26.7044 34.6096 26.5 33.6418 26.5 32.5556C26.5 29.8364 28.7931 27.8618 30.7149 26.2079C31.2941 25.7096 31.8394 25.2402 32.2778 24.7881V22.4444H33.7222V24.7881C34.1606 25.2402 34.7059 25.7096 35.2851 26.2079C37.2062 27.8618 39.5 29.8364 39.5 32.5556C39.5 33.6418 39.2949 34.6096 38.9273 35.4444ZM40.9444 47H46V28.9444C45.9224 28.9445 45.8454 28.9321 45.7718 28.9076C44.6993 28.5494 44.0702 28.4021 43.4722 28.4021C42.8742 28.4021 42.2452 28.5494 41.1727 28.9076L40.9444 28.9834V47ZM41.0853 27.4162C41.9996 27.1259 42.724 26.9583 43.4722 26.9583C44.2176 26.9583 44.9405 27.1244 45.8498 27.4133C45.207 24.4768 43.4722 21 43.4722 21C43.4722 21 41.6862 24.6082 41.0853 27.4162ZM39.5 47V41.2222H26.5V47H29.3889V46.1911C29.389 45.6415 29.5458 45.1032 29.8411 44.6396C30.1363 44.176 30.5577 43.8063 31.0558 43.5738L33 42.6667L34.9442 43.5738C35.4424 43.8063 35.8638 44.1762 36.1591 44.6399C36.4544 45.1037 36.6112 45.6421 36.6111 46.1918V47H39.5Z" fill="white"/>
</g>
</g>
</svg>
