<svg width="16" height="18" viewBox="0 0 16 18" fill="none" xmlns="http://www.w3.org/2000/svg">
<g id="Group 8">
<path id="Vector" d="M15.6636 12.6088C15.5945 12.5272 15.5267 12.4457 15.4601 12.367C14.5442 11.2823 13.9901 10.6276 13.9901 7.55687C13.9901 5.96706 13.6016 4.66261 12.836 3.68427C12.2715 2.96152 11.5084 2.41324 10.5026 2.00804C10.4896 2.00099 10.4781 1.99175 10.4684 1.98073C10.1067 0.794494 9.11666 0 8.0001 0C6.88354 0 5.89396 0.794494 5.53218 1.97951C5.52253 1.99012 5.51113 1.99907 5.49846 2.00601C3.15128 2.95214 2.01057 4.76737 2.01057 7.55564C2.01057 10.6276 1.45729 11.2823 0.540562 12.3658C0.473952 12.4445 0.406092 12.5244 0.336984 12.6075C0.158468 12.8184 0.0453637 13.0748 0.0110561 13.3466C-0.0232514 13.6184 0.0226739 13.8941 0.143397 14.1411C0.400264 14.671 0.947719 15 1.57261 15H14.4322C15.0542 15 15.5979 14.6714 15.8556 14.144C15.9768 13.8969 16.0232 13.6209 15.9892 13.3488C15.9551 13.0768 15.8422 12.8199 15.6636 12.6088Z" fill="#300759"/>
<path id="Vector_2" d="M7.99979 18C8.61124 17.9995 9.21115 17.8361 9.7359 17.527C10.2607 17.218 10.6907 16.7748 10.9804 16.2446C10.994 16.2192 11.0008 16.1907 10.9999 16.162C10.9991 16.1333 10.9908 16.1052 10.9757 16.0806C10.9606 16.056 10.9393 16.0356 10.9139 16.0215C10.8885 16.0074 10.8598 16 10.8306 16H5.16985C5.14062 15.9999 5.11186 16.0073 5.08638 16.0213C5.0609 16.0354 5.03955 16.0558 5.02443 16.0804C5.0093 16.105 5.00091 16.1331 5.00007 16.1619C4.99923 16.1906 5.00597 16.2191 5.01964 16.2446C5.30929 16.7748 5.73924 17.2179 6.26392 17.5269C6.78859 17.836 7.38841 17.9994 7.99979 18Z" fill="#300759"/>
</g>
</svg>
