<svg width="48" height="48" viewBox="0 0 48 48" fill="none" xmlns="http://www.w3.org/2000/svg">
<g id="quran button">
<circle id="Ellipse 7" cx="24" cy="24" r="24" fill="#E5B6F2"/>
<g id="Group 1">
<path id="Vector" d="M7 37.2H41L38.1786 14.6144C38.1576 12.7183 38.2058 11.6683 38.2058 11.6683C37.766 11.8037 37.1115 11.8558 36.3278 11.8558C36.1952 11.8558 36.0564 11.8536 35.9153 11.8507C35.9125 10.667 35.9374 10 35.9374 10C35.2568 10.8953 33.8039 11.1231 32.1475 11.1231C30.4277 11.1231 28.4891 10.8778 26.9659 10.8778C24.616 10.8778 24.1139 12.4503 24.0051 13.1263C23.8963 12.4474 23.392 10.8817 21.0471 10.8817C19.5239 10.8817 17.5865 11.1271 15.8672 11.1271C14.2091 11.1271 12.7562 10.8993 12.0756 10.0028C12.0756 10.0028 12.1006 10.6692 12.0972 11.8502C11.9572 11.8524 11.8178 11.8553 11.6846 11.8553C10.8998 11.8553 10.247 11.8031 9.80727 11.6677C9.80727 11.6677 9.85317 12.6713 9.8356 14.4931L7 37.2ZM36.3278 12.911C36.614 12.911 36.8764 12.9042 37.1172 12.8911C37.0877 15.9698 37.2186 24.3803 39.0943 35.2631C38.7468 35.2074 38.4005 35.1445 38.0556 35.0744C38.2777 34.9821 38.454 34.8563 38.573 34.6868C36.423 25.5799 35.9907 17.161 35.9261 12.9053C36.0621 12.9081 36.1975 12.911 36.3278 12.911ZM27.1869 12.3296C28.3378 12.3296 29.878 12.465 31.5072 12.6084C32.6451 12.7087 33.8073 12.8095 34.8675 12.8662C34.9327 17.0567 35.3469 25.279 37.3648 34.1774C37.2124 34.2029 37.001 34.2227 36.7098 34.2227C35.6331 34.2227 34.0906 33.949 32.5992 33.6838C30.9196 33.3858 29.1833 33.0769 27.7666 33.0769C26.6684 33.0769 25.8037 33.2832 25.122 33.5988C25.0959 33.6096 25.0659 33.6175 25.0415 33.6289L25.0376 13.7893C25.0574 13.5094 25.2546 12.3296 27.1869 12.3296ZM13.1472 12.8662C14.2074 12.8095 15.3685 12.7087 16.5058 12.6084C18.1356 12.4656 19.6758 12.3296 20.8278 12.3296C22.6972 12.3296 22.9471 13.4221 22.976 13.8125L22.9709 33.6283C22.9262 33.6085 22.8729 33.5926 22.8259 33.5739C22.1527 33.2741 21.3106 33.0781 20.2447 33.0781C18.828 33.0781 17.0918 33.3875 15.4127 33.6855C13.9201 33.9513 12.3782 34.225 11.3016 34.225C11.0103 34.225 10.7984 34.2052 10.6482 34.1802C12.6667 25.2807 13.0809 17.0556 13.1472 12.8662ZM10.897 12.8911C11.1384 12.9042 11.4002 12.911 11.6863 12.911C11.8167 12.911 11.9527 12.9081 12.0887 12.9059C12.0235 17.1604 11.5906 25.5816 9.4395 34.6902C9.55793 34.8585 9.73247 34.9843 9.95177 35.0761C9.59987 35.1464 9.25363 35.2104 8.91703 35.2637C10.7944 24.3803 10.9259 15.9698 10.897 12.8911Z" fill="#300759"/>
<path id="Vector_2" d="M20.2743 13.2189C21.7662 13.2189 22.258 13.4506 22.2633 13.453L22.4016 13.3288L22.5429 13.2073C22.4853 13.1779 21.933 12.9143 20.29 12.9143C19.0534 12.9143 17.5267 13.1289 16.1721 13.3176C15.1849 13.4562 14.3297 13.576 13.8402 13.576L13.8 13.8857C14.339 13.8857 15.2192 13.7619 16.236 13.6186C17.5732 13.4311 19.0813 13.2189 20.2743 13.2189Z" fill="#300759"/>
<path id="Vector_3" d="M20.2748 15.467C21.766 15.467 22.259 15.93 22.2636 15.9346L22.4015 15.6882L22.5429 15.4449C22.4853 15.3829 21.9336 14.8572 20.2908 14.8572C19.0544 14.8572 17.5279 15.2842 16.1736 15.6645C15.1857 15.9392 14.3307 16.1795 13.8417 16.1795L13.8 16.8C14.3393 16.8 15.2188 16.5521 16.2363 16.2675C17.5724 15.8917 19.0824 15.467 20.2748 15.467Z" fill="#300759"/>
<path id="Vector_4" d="M20.2752 18.0764C21.766 18.0764 22.2575 18.307 22.2631 18.31L22.401 18.1864L22.5429 18.0654C22.4848 18.0345 21.9324 17.7715 20.2909 17.7715C19.0554 17.7715 17.5294 17.9852 16.175 18.175C15.1869 18.3129 14.3312 18.4332 13.8431 18.4332L13.8 18.7429C14.3396 18.7429 15.2199 18.6193 16.2364 18.4766C17.573 18.2879 19.0822 18.0764 20.2752 18.0764Z" fill="#300759"/>
<path id="Vector_5" d="M20.0237 20.324C21.6795 20.324 22.2261 20.7869 22.2328 20.7912L22.386 20.5449L22.5429 20.3007C22.4791 20.2407 21.8655 19.7142 20.0426 19.7142C18.6696 19.7142 16.9731 20.1412 15.4682 20.5216C14.37 20.7975 13.4203 21.0361 12.876 21.0361L12.8286 21.6571C13.4269 21.6571 14.4071 21.4094 15.5369 21.1236C17.023 20.7474 18.6988 20.324 20.0237 20.324Z" fill="#300759"/>
<path id="Vector_6" d="M20.024 22.9329C21.679 22.9329 22.2262 23.1645 22.2309 23.1669L22.3857 23.0433L22.5429 22.9214C22.478 22.8913 21.8654 22.6285 20.0424 22.6285C18.6708 22.6285 16.9746 22.8419 15.4696 23.0315C14.3706 23.1693 13.421 23.2895 12.8768 23.2895L12.8286 23.6C13.4269 23.6 14.4057 23.476 15.5368 23.3325C17.0222 23.1446 18.6975 22.9329 20.024 22.9329Z" fill="#300759"/>
<path id="Vector_7" d="M20.0246 25.1805C21.6794 25.1805 22.2259 25.6428 22.2312 25.648L22.385 25.4013L22.5429 25.1578C22.4788 25.0974 21.8664 24.5714 20.0444 24.5714C18.6728 24.5714 16.9761 24.9987 15.4716 25.3779C14.3721 25.6545 13.4218 25.8941 12.8781 25.8941L12.8286 26.5143C13.4276 26.5143 14.4077 26.2669 15.538 25.9812C17.0238 25.6039 18.7002 25.1805 20.0246 25.1805Z" fill="#300759"/>
<path id="Vector_8" d="M20.0267 28.0938C21.681 28.0938 22.2265 28.5571 22.2322 28.5621L22.3861 28.3149L22.5429 28.0714C22.4791 28.0106 21.8668 27.4857 20.0449 27.4857C18.6739 27.4857 16.978 27.913 15.4725 28.2907C14.374 28.5671 13.4226 28.8075 12.8799 28.8075L12.8286 29.4286C13.4277 29.4286 14.4077 29.1801 15.5386 28.8938C17.0253 28.5174 18.7019 28.0938 20.0267 28.0938Z" fill="#300759"/>
<path id="Vector_9" d="M19.774 31.0094C21.595 31.0094 22.194 31.4713 22.2002 31.4761L22.3694 31.2288L22.5429 30.9862C22.4718 30.9256 21.7998 30.4 19.7967 30.4C18.2884 30.4 16.4226 30.8269 14.7665 31.2062C13.558 31.4832 12.5114 31.721 11.9142 31.721L11.8572 32.3429C12.5151 32.3429 13.593 32.0956 14.8376 31.8096C16.4741 31.4333 18.3184 31.0094 19.774 31.0094Z" fill="#300759"/>
<path id="Vector_10" d="M25.738 13.453C25.7426 13.4506 26.2345 13.2189 27.7263 13.2189C28.9205 13.2189 30.428 13.4311 31.7646 13.6186C32.7814 13.7619 33.6616 13.8857 34.2 13.8857L34.1599 13.576C33.6704 13.576 32.8152 13.4562 31.828 13.3176C30.4745 13.1289 28.9472 12.9143 27.7106 12.9143C26.0688 12.9143 25.5153 13.1779 25.4572 13.2073L25.599 13.3288L25.738 13.453Z" fill="#300759"/>
<path id="Vector_11" d="M27.7096 14.8572C26.066 14.8572 25.5136 15.3831 25.4572 15.4451L25.5985 15.6885L25.7359 15.935C25.7411 15.9312 26.2336 15.4673 27.7255 15.4673C28.9182 15.4673 30.4272 15.8914 31.7635 16.2672C32.7805 16.5528 33.6607 16.8 34.2 16.8L34.1584 16.1792C33.6704 16.1792 32.8147 15.9396 31.8267 15.664C30.4728 15.2843 28.9461 14.8572 27.7096 14.8572Z" fill="#300759"/>
<path id="Vector_12" d="M27.7091 17.7715C26.0672 17.7715 25.5147 18.0346 25.4572 18.0655L25.5985 18.1865L25.7365 18.3102C25.7415 18.3076 26.2342 18.0765 27.7247 18.0765C28.9185 18.0765 30.4263 18.2881 31.7637 18.4765C32.7805 18.6193 33.6615 18.7429 34.2 18.7429L34.1581 18.4331C33.6693 18.4331 32.814 18.3128 31.8252 18.1748C30.4721 17.9849 28.9448 17.7715 27.7091 17.7715Z" fill="#300759"/>
<path id="Vector_13" d="M27.9573 19.7142C26.1333 19.7142 25.5198 20.2402 25.4572 20.3009L25.6134 20.5452L25.7672 20.7916C25.7733 20.7873 26.3193 20.3242 27.9756 20.3242C29.301 20.3242 30.9773 20.7478 32.4639 21.1234C33.5936 21.4093 34.5725 21.6571 35.1714 21.6571L35.1222 21.0365C34.5786 21.0365 33.6289 20.7979 32.5308 20.5219C31.0266 20.1414 29.3302 19.7142 27.9573 19.7142Z" fill="#300759"/>
<path id="Vector_14" d="M27.9558 22.6285C26.1323 22.6285 25.5209 22.8913 25.4572 22.9214L25.6143 23.0433L25.7673 23.1669C25.7739 23.1645 26.3192 22.9329 27.9755 22.9329C29.3007 22.9329 30.9772 23.1446 32.462 23.3325C33.5932 23.476 34.5725 23.6 35.1714 23.6L35.1226 23.2895C34.5785 23.2895 33.6283 23.1693 32.5305 23.0315C31.0254 22.8419 29.3293 22.6285 27.9558 22.6285Z" fill="#300759"/>
<path id="Vector_15" d="M27.9558 24.5714C26.1337 24.5714 25.5218 25.0982 25.4572 25.158L25.6151 25.4016L25.7689 25.6484C25.7736 25.6432 26.3201 25.1807 27.975 25.1807C29.2989 25.1807 30.976 25.6042 32.4624 25.981C33.5929 26.2668 34.5724 26.5143 35.1714 26.5143L35.1213 25.8939C34.5782 25.8939 33.6279 25.6542 32.53 25.3775C31.0249 24.9988 29.3286 24.5714 27.9558 24.5714Z" fill="#300759"/>
<path id="Vector_16" d="M27.9551 27.4857C26.1332 27.4857 25.5216 28.0114 25.4572 28.0716L25.6133 28.3152L25.7678 28.5625C25.773 28.5575 26.3191 28.094 27.9739 28.094C29.2982 28.094 30.9753 28.5183 32.4614 28.8936C33.5924 29.18 34.5729 29.4286 35.1714 29.4286L35.1196 28.8073C34.5763 28.8073 33.6255 28.5668 32.5281 28.2903C31.022 27.9132 29.3261 27.4857 27.9551 27.4857Z" fill="#300759"/>
<path id="Vector_17" d="M28.2038 30.4C26.2002 30.4 25.5277 30.9262 25.4572 30.9862L25.6294 31.2288L25.7986 31.4761C25.8054 31.4713 26.4056 31.0094 28.2247 31.0094C29.682 31.0094 31.5262 31.4333 33.1614 31.8096C34.4053 32.0956 35.4838 32.3429 36.1429 32.3429L36.0846 31.721C35.4875 31.721 34.4409 31.4832 33.2331 31.2062C31.5771 30.8269 29.7108 30.4 28.2038 30.4Z" fill="#300759"/>
</g>
</g>
</svg>
