<svg width="16" height="16" viewBox="0 0 16 16" fill="none" xmlns="http://www.w3.org/2000/svg">
<path id="Vector" d="M0 6.49766C0 10.0862 2.85291 12.9908 6.37715 12.9908C9.89618 12.9908 12.7535 10.0862 12.7535 6.49766C12.7535 2.90914 9.89618 0 6.37715 0C2.85291 0 0 2.90914 0 6.49766ZM2.02076 6.49766C2.02076 4.04473 3.96831 2.0599 6.37755 2.0599C8.78198 2.0599 10.7335 4.04514 10.7335 6.49766C10.7335 8.95059 8.78198 10.9358 6.37755 10.9358C3.96831 10.9358 2.02076 8.95018 2.02076 6.49766ZM10.8668 12.4558L13.6092 15.6595C14.0509 16.1116 14.3358 16.1153 14.7847 15.6595L15.6652 14.7648C16.0981 14.3213 16.1249 14.0353 15.6652 13.5664L12.5062 10.7869L10.8668 12.4558Z" fill="#300759"/>
</svg>
